<svg xmlns="http://www.w3.org/2000/svg" viewBox="0 0 256 259" fill="#ffffff">
  <path d="M127.779 0C57.895 0 .84 55.32 0 124.903l68.94 28.477c5.849-4.003 12.898-6.347 20.51-6.347.682 0 1.357.019 2.028.056l30.69-44.47v-.624c0-26.152 21.282-47.434 47.438-47.434 26.16 0 47.44 21.282 47.44 47.434 0 26.16-21.28 47.442-47.44 47.442h-1.1l-43.754 31.242c0 .534.036 1.072.036 1.608 0 19.614-15.946 35.564-35.568 35.564-17.358 0-31.836-12.488-34.92-28.97L4.262 167.48C20.587 218.52 68.673 255.266 125.27 258.92v.022h2.51c69.28 0 125.62-56.14 125.62-125.414S197.06 0 127.78 0zM80.25 196.594l-14.758-6.098c2.625 5.476 7.03 10.08 12.923 12.76 12.77 5.805 27.82.16 33.615-12.6 2.806-6.185 2.823-13.002.047-19.2-2.776-6.2-7.959-10.83-14.147-13.644-6.12-2.783-12.685-2.723-18.496-.486l15.258 6.31c9.416 3.897 13.885 14.676 9.984 24.088-3.896 9.414-14.676 13.885-24.092 9.988zm109.07-94.1c0-17.452-14.196-31.64-31.648-31.64-17.452 0-31.648 14.188-31.648 31.64 0 17.456 14.196 31.644 31.648 31.644 17.452 0 31.648-14.188 31.648-31.644zm-55.394.04c0-13.164 10.7-23.86 23.86-23.86 13.166 0 23.864 10.696 23.864 23.86 0 13.164-10.698 23.86-23.864 23.86-13.16 0-23.86-10.696-23.86-23.86z"/>
</svg>
